<?xml version="1.0" encoding="UTF-8" standalone="no"?>
<!DOCTYPE svg PUBLIC "-//W3C//DTD SVG 1.1//EN" "http://www.w3.org/Graphics/SVG/1.1/DTD/svg11.dtd">
<svg width="100%" height="100%" viewBox="0 0 2400 1000" version="1.1" xmlns="http://www.w3.org/2000/svg" xmlns:xlink="http://www.w3.org/1999/xlink" xml:space="preserve" xmlns:serif="http://www.serif.com/" style="fill-rule:evenodd;clip-rule:evenodd;stroke-linejoin:round;stroke-miterlimit:2;">
    <g transform="matrix(0.897733,0,0,0.897733,-2.64148,7.13525)">
        <path d="M303.922,567.878L303.922,693.378C303.922,739.378 307.922,743.878 349.422,745.378L349.422,758.378L193.922,758.378L193.922,745.378C234.922,743.878 238.922,739.378 238.922,693.378L238.922,448.878C238.922,403.878 234.922,398.878 195.922,397.378L195.922,384.378L347.422,384.378L347.422,397.378C307.922,398.878 303.922,403.878 303.922,448.878L303.922,551.378L469.922,551.378L469.922,448.878C469.922,403.878 465.922,398.878 426.422,397.378L426.422,384.378L578.422,384.378L578.422,397.378C538.922,398.878 534.922,403.878 534.922,448.878L534.922,693.378C534.922,739.378 538.922,743.878 579.922,745.378L579.922,758.378L424.422,758.378L424.422,745.378C465.922,743.878 469.922,739.378 469.922,693.378L469.922,567.878L303.922,567.878ZM616.922,629.878C616.922,588.878 630.922,550.378 654.422,525.378C675.922,502.878 709.922,489.878 747.922,489.878C826.422,489.878 877.422,543.878 877.422,626.878C877.422,665.878 864.922,702.878 844.422,725.878C821.422,751.378 784.922,766.378 745.422,766.378C707.922,766.378 672.422,751.878 651.422,728.378C629.422,703.878 616.922,668.378 616.922,629.878ZM684.422,627.378C684.422,713.878 704.422,754.878 747.422,754.878C790.922,754.878 810.422,715.878 810.422,628.878C810.422,541.378 790.422,501.378 746.922,501.378C726.422,501.378 708.922,511.878 700.422,530.378C689.422,551.878 684.422,583.878 684.422,627.378ZM1010.92,490.878L1011.42,540.378C1032.92,505.378 1060.42,489.878 1100.42,489.878C1132.92,489.878 1155.42,500.878 1168.42,523.878C1177.42,538.878 1180.92,555.378 1180.92,585.378L1180.92,696.378C1180.92,740.878 1184.42,745.878 1218.92,746.378L1218.92,758.378L1082.92,758.378L1082.92,746.378C1116.42,745.878 1120.42,740.378 1120.42,696.378L1120.42,588.378C1120.42,534.378 1107.42,511.878 1076.42,511.878C1055.42,511.878 1037.42,523.378 1024.92,544.878C1016.92,559.378 1011.42,579.878 1011.42,596.378L1011.42,696.378C1011.42,741.378 1014.92,745.878 1048.92,746.378L1048.92,758.378L912.422,758.378L912.422,746.378C946.922,745.878 950.422,740.878 950.422,696.378L950.422,557.878C950.422,515.378 946.422,509.878 913.422,509.378L913.422,497.378L1010.92,490.878ZM1339.92,659.378L1339.92,696.378C1339.92,741.378 1343.42,745.878 1377.42,746.378L1377.42,758.378L1241.92,758.378L1241.92,746.378C1275.92,745.878 1279.42,740.878 1279.42,696.378L1279.42,444.378C1279.42,400.378 1275.92,395.878 1241.42,395.878L1241.42,384.378L1342.92,378.878C1340.92,415.878 1339.92,447.878 1339.92,481.378L1339.92,638.878L1406.92,561.878C1416.92,549.878 1422.42,539.378 1422.42,530.378C1422.42,516.878 1411.92,510.378 1387.92,508.878L1387.92,497.378L1516.92,497.378L1516.92,508.878C1500.92,510.878 1488.92,514.378 1474.92,521.878C1457.92,530.878 1447.92,539.378 1426.92,562.378L1408.42,582.878L1477.92,702.378C1496.42,733.378 1506.92,742.378 1529.92,747.378L1529.92,758.378L1437.92,758.378C1432.92,747.378 1419.42,720.378 1415.92,713.878L1367.92,627.878L1339.92,659.378ZM1834.92,758.378L1743.92,762.878C1742.42,749.878 1741.42,730.878 1741.42,710.378C1720.42,744.878 1686.42,765.378 1649.42,765.378C1619.92,765.378 1596.42,751.878 1584.92,727.878C1578.42,713.878 1575.42,696.378 1575.42,665.878L1575.42,658.878L1576.42,557.878C1576.42,556.378 1576.92,555.378 1576.92,553.878C1576.92,533.878 1575.42,522.878 1571.42,517.378C1566.92,511.378 1562.92,509.878 1540.42,509.378L1540.42,497.378L1640.92,490.878C1638.42,526.878 1637.42,545.878 1636.92,590.378L1636.42,643.378L1636.42,652.878C1636.42,686.878 1637.92,699.378 1642.92,713.878C1648.42,730.378 1660.42,738.378 1677.92,738.378C1700.92,738.378 1719.92,723.378 1731.92,696.378C1738.92,679.878 1741.42,663.878 1741.42,636.878L1741.42,557.878C1741.42,530.378 1739.42,520.378 1733.92,514.878C1728.92,510.878 1725.92,509.878 1704.92,509.378L1704.92,497.378L1805.42,490.878C1802.42,559.378 1802.42,559.378 1802.42,590.878L1802.42,694.878C1802.42,738.378 1807.42,746.378 1834.92,746.878L1834.92,758.378ZM1959.42,490.878L1959.92,540.378C1979.92,507.378 2009.42,489.878 2046.92,489.878C2085.42,489.878 2108.92,506.878 2117.92,542.378C2139.92,505.878 2166.42,489.878 2203.92,489.878C2232.92,489.878 2255.42,499.878 2268.92,518.878C2279.92,533.878 2283.92,552.378 2283.92,586.378L2283.92,696.378C2283.92,740.878 2287.42,745.878 2321.92,746.378L2321.92,758.378L2186.42,758.378L2186.42,746.378C2219.42,745.878 2222.92,740.878 2222.92,696.378L2222.92,586.878C2222.92,533.878 2210.92,512.878 2181.42,512.878C2163.42,512.878 2149.42,521.378 2136.92,540.378C2126.42,556.378 2121.42,572.378 2121.42,590.878L2121.42,696.378C2121.42,740.878 2124.92,745.878 2158.42,746.378L2158.42,758.378L2024.42,758.378L2024.42,746.378C2057.42,745.878 2060.92,740.878 2060.92,696.378L2060.92,586.378C2060.92,536.378 2047.92,512.878 2020.42,512.878C1987.42,512.878 1959.92,549.878 1959.92,594.878L1959.92,696.378C1959.92,741.378 1963.42,745.878 1996.42,746.378L1996.42,758.378L1860.92,758.378L1860.92,746.378C1895.42,745.878 1898.92,741.378 1898.92,696.378L1898.92,557.378C1898.92,515.378 1894.92,509.878 1861.92,509.378L1861.92,497.378L1959.42,490.878ZM2347.92,497.378L2449.42,490.878C2447.42,520.878 2446.42,555.878 2446.42,587.878L2446.42,696.378C2446.42,740.878 2449.92,745.878 2485.42,746.378L2485.42,758.378L2346.42,758.378L2346.42,746.378C2381.92,745.878 2385.42,740.878 2385.42,696.378L2385.42,557.878C2385.42,513.378 2382.92,509.878 2347.92,509.378L2347.92,497.378ZM2380.42,411.878C2380.42,391.878 2396.42,375.878 2416.42,375.878C2436.42,375.878 2452.42,391.878 2452.42,411.878C2452.42,431.878 2436.42,447.878 2416.42,447.878C2396.42,447.878 2380.42,431.878 2380.42,411.878Z" style="fill:url(#_Linear1);"/>
    </g>
    <defs>
        <linearGradient id="_Linear1" x1="0" y1="0" x2="1" y2="0" gradientUnits="userSpaceOnUse" gradientTransform="matrix(-1.49592,380.157,-380.157,-1.49592,1357.94,390.478)"><stop offset="0" style="stop-color:rgb(240,225,176);stop-opacity:1"/><stop offset="0.24" style="stop-color:rgb(217,185,107);stop-opacity:1"/><stop offset="0.53" style="stop-color:rgb(179,138,58);stop-opacity:1"/><stop offset="1" style="stop-color:rgb(122,91,35);stop-opacity:1"/></linearGradient>
    </defs>
</svg>
